<svg xmlns="http://www.w3.org/2000/svg" height="24" width="24">
    <path d="M6 22v-4.3q-1.425-1.3-2.212-3.038Q3 12.925 3 11q0-3.75 2.625-6.375T12 2q3.125 0 5.538 1.838 2.412 1.837 3.137 4.787l1.3 5.125q.125.475-.175.863-.3.387-.8.387h-2v3q0 .825-.587 1.413Q17.825 20 17 20h-2v2h-2v-4h4v-5h2.7l-.95-3.875q-.575-2.275-2.45-3.7Q14.425 4 12 4 9.1 4 7.05 6.025 5 8.05 5 10.95q0 1.5.613 2.85.612 1.35 1.737 2.4l.65.6V22Zm6.35-9ZM11 15h2l.15-1.25q.2-.075.363-.175.162-.1.287-.225l1.15.5 1-1.7-1-.75q.05-.2.05-.4t-.05-.4l1-.75-1-1.7-1.15.5q-.125-.125-.287-.225-.163-.1-.363-.175L13 7h-2l-.15 1.25q-.2.075-.362.175-.163.1-.288.225l-1.15-.5-1 1.7 1 .75Q9 10.8 9 11t.05.4l-1 .75 1 1.7 1.15-.5q.125.125.288.225.162.1.362.175Zm1-2.5q-.625 0-1.062-.438Q10.5 11.625 10.5 11t.438-1.062Q11.375 9.5 12 9.5t1.062.438q.438.437.438 1.062t-.438 1.062q-.437.438-1.062.438Z"/>
</svg>