<svg xmlns="http://www.w3.org/2000/svg" height="20" viewBox="0 -960 960 960" width="20"><path d="M264-96v-175q-57-48-88.5-115.569Q144-454.139 144-529q0-139.583 98.292-237.292Q340.583-864 481-864q109 0 196 58.5T792-653l66 223q5 17.48-5.5 31.74Q842-384 824-384h-56v120q0 29.7-21.15 50.85Q725.7-192 696-192h-96v96h-72v-168h168v-192h80l-52-173q-22-72-89.5-117.5T481-792q-111 0-188 76.63-77 76.629-77 186.37 0 58.929 25 111.964Q266-364 311-326l25 22v208h-72Zm232-348Zm-44.674 60H509l4-42q11.429-3.818 20.714-8.909Q543-440 552-448l38 17 29-50-33-24q2-11.5 2-23t-2-23l33-24-29-50-38 17q-8-8-18-13t-21-9l-4.326-42H451l-4 42q-11.429 3.818-20.714 8.909Q417-616 408-608l-38-17-29 50 33 24q-2 11.5-2 23t2 23l-33 24 29 50 38-17q8 8 18 13t21 9l4.326 42ZM480-480q-20 0-34-14t-14-34q0-20 14-34t34-14q20 0 34 14t14 34q0 20-14 34t-34 14Z"/></svg>