<svg xmlns="http://www.w3.org/2000/svg" height="40" viewBox="0 -960 960 960" width="40"><path d="M480-80q-83 0-156-31.5T197-197q-54-54-85.5-127T80-480q0-83 31.5-156T197-763q54-54 127-85.5T480-880q83 0 156 31.5T763-763q54 54 85.5 127T880-480v54.667q0 57-39.729 96.499-39.728 39.5-97.604 39.5-35.722 0-67.361-16.666-31.639-16.667-49.973-47.334-27 32.334-65.222 48.167-38.223 15.833-80.111 15.833-79.403 0-135.368-55.5-55.965-55.499-55.965-135.175 0-79.676 55.965-135.834Q400.597-672 480-672q79.403 0 135.368 56.16 55.965 56.16 55.965 135.84v54.667q0 29.075 20.667 49.204T742.333-356q29.667 0 50.334-20.129t20.667-49.204V-480q0-139.583-96.875-236.459Q619.583-813.334 480-813.334t-236.459 96.875Q146.666-619.583 146.666-480t96.875 236.459Q340.417-146.666 480-146.666h209.334V-80H480Zm.039-276q51.961 0 88.294-36.167 36.334-36.166 36.334-87.833 0-52.667-36.373-89-36.372-36.333-88.333-36.333T391.667-569q-36.334 36.333-36.334 89 0 51.667 36.373 87.833Q428.078-356 480.039-356Z"/></svg>