<svg xmlns="http://www.w3.org/2000/svg" height="20" viewBox="0 -960 960 960" width="20"><path d="M444-48v-98q-121-14-202.5-96T146-444H48v-72h98q14-120 95.5-202T444-814v-98h72v98q121 14 202.5 96T814-516h98v72h-98q-14 120-95.5 202T516-146v98h-72Zm36-168q110 0 187-77t77-187q0-110-77-187t-187-77q-110 0-187 77t-77 187q0 110 77 187t187 77Zm0-120q-60 0-102-42t-42-102q0-60 42-102t102-42q60 0 102 42t42 102q0 60-42 102t-102 42Zm0-65q32.588 0 55.794-23.206Q559-447.413 559-480q0-32.588-23.206-55.794Q512.588-559 480-559q-32.587 0-55.794 23.206Q401-512.588 401-480q0 32.587 23.206 55.794Q447.413-401 480-401Zm1-80Z"/></svg>