<svg xmlns="http://www.w3.org/2000/svg" height="40" viewBox="0 -960 960 960" width="40"><path d="M522-560.001v-66.666h220.001v66.666H522Zm0-133.333V-760h320v66.666H522ZM304-120.667q-78.02 0-133.01-54.99Q116-230.646 116-308.666q0-48 23-90.167T202.667-468v-270.667q0-42.222 29.509-71.778Q261.686-840 303.843-840q42.156 0 71.823 29.555 29.666 29.556 29.666 71.778V-468q40.667 27 63.667 69.167t23 90.167q0 78.02-54.99 133.009-54.99 54.99-133.009 54.99ZM182.666-308.666h242.667q0-36.334-16.834-65.667-16.833-29.334-45.833-44.334l-24-13.999v-306.001q0-14.734-9.967-24.7-9.966-9.967-24.699-9.967-14.734 0-24.7 9.967-9.967 9.966-9.967 24.7v306.001l-24 13.999q-29 15-45.833 44.667-16.834 29.667-16.834 65.334Z"/></svg>