<svg xmlns="http://www.w3.org/2000/svg" height="40" viewBox="0 -960 960 960" width="40"><path d="M480-120q-78.02 0-133.01-54.99Q292-229.98 292-308q0-48.732 23-90.866T378.667-468v-270.667q0-42.222 29.51-71.778Q437.687-840 479.843-840q42.157 0 71.823 29.555 29.667 29.556 29.667 71.778V-468Q622-441 645-398.866T668-308q0 78.02-54.99 133.01Q558.02-120 480-120Zm.078-66q50.589 0 85.922-35.583T601.333-308q0-34.873-16.166-64.937Q569-403 538.666-418.667l-23.999-13.999v-306.001q0-14.734-9.967-24.7-9.967-9.967-24.7-9.967-14.733 0-24.7 9.967-9.967 9.966-9.967 24.7v306.001l-23.999 13.999Q391-403 374.833-372.937 358.667-342.873 358.667-308q0 50.834 35.411 86.417Q429.49-186 480.078-186ZM480-308Z"/></svg>