<svg xmlns="http://www.w3.org/2000/svg" height="20" viewBox="0 -960 960 960" width="20"><path d="M479.774-144Q400-144 344-200.16T288-336q0-48 21.5-90.5t62.5-68.318v-213.668Q372-753 403.5-784.5 435-816 480-816t76.5 31.5Q588-753 588-708v213.234Q628-469 649.5-426.5 671-384 672-336q0 79.68-56.226 135.84t-136 56.16Zm.226-72q50 0 85-35t35-85q0-39-26-68t-58-52v-252q0-15.3-10.289-25.65-10.29-10.35-25.5-10.35Q465-744 454.5-733.65 444-723.3 444-708v251q-32 23-58 52.5T360-336q0 50 35 85t85 35Zm0-120Z"/></svg>