<svg xmlns="http://www.w3.org/2000/svg" viewBox="0 0 1000 1000" width="1000" height="1000"><defs></defs><g transform="matrix(1,0,0,1,500,500)">
<g>
	<path d="M-0,0C-0,-60.666667 21.5,-112.5 64.5,-155.5 C107.5,-198.5 159.333333,-220 220,-220 C280.666667,-220 332.5,-198.5 375.5,-155.5 C418.5,-112.5 440,-60.666667 440,0 C440,0 -0,0 -0,0 C-0,0 -0,0 -0,0 ZM-220,220C-280.666667,220 -332.5,198.5 -375.5,155.5 C-418.5,112.5 -440,60.666667 -440,0 C-440,0 -0,0 -0,0 C-0,60.666667 -21.5,112.5 -64.5,155.5 C-107.5,198.5 -159.333333,220 -220,220 C-220,220 -220,220 -220,220 ZM-0,0C-60.666667,0 -112.5,-21.5 -155.5,-64.5 C-198.5,-107.5 -220,-159.333333 -220,-220 C-220,-280.666667 -198.5,-332.5 -155.5,-375.5 C-112.5,-418.5 -60.666667,-440 -0,-440 C-0,-440 -0,0 -0,0 C-0,0 -0,0 -0,0 ZM-0,440C-0,440 -0,0 -0,0 C60.666667,0 112.5,21.5 155.5,64.5 C198.5,107.5 220,159.333333 220,220 C220,280.666667 198.5,332.5 155.5,375.5 C112.5,418.5 60.666667,440 -0,440 C-0,440 -0,440 -0,440 Z" fill="#000000" stroke="#ffffff" stroke-width="30.000000000000004"/>
</g>
<g>
	<path d="M-500,-500L 500,-500 L 500,500 L -500,500 L -500,-500 Z" fill="#ffffff" fill-opacity="0"/>
</g></g></svg>