<svg xmlns="http://www.w3.org/2000/svg" height="40" viewBox="0 -960 960 960" width="40"><path d="M446.667-42v-76.667q-133-14-223.5-104.5t-104.5-223.5H42v-66.666h76.667q14-133 104.5-223.5t223.5-104.5V-918h66.666v76.667q133 14 223.5 104.5t104.5 223.5H918v66.666h-76.667q-14 133-104.5 223.5t-223.5 104.5V-42h-66.666ZM480-184q122 0 209-87t87-209q0-122-87-209t-209-87q-122 0-209 87t-87 209q0 122 87 209t209 87Zm0-142.667q-64 0-108.667-44.666Q326.667-416 326.667-480t44.666-108.667Q416-633.333 480-633.333t108.667 44.666Q633.333-544 633.333-480t-44.666 108.667Q544-326.667 480-326.667Zm0-66.666q36.333 0 61.5-25.167t25.167-61.5q0-36.333-25.167-61.5T480-566.667q-36.333 0-61.5 25.167T393.333-480q0 36.333 25.167 61.5t61.5 25.167ZM480-480Z"/></svg>