<svg xmlns="http://www.w3.org/2000/svg" height="40" viewBox="0 -960 960 960" width="40"><path d="M479.906-160q-24.239 0-41.406-17.261-17.166-17.261-17.166-41.499 0-24.239 17.261-41.406 17.261-17.166 41.499-17.166 24.239 0 41.406 17.261 17.166 17.261 17.166 41.499 0 24.239-17.261 41.406Q504.144-160 479.906-160Zm0-261.334q-24.239 0-41.406-17.261-17.166-17.261-17.166-41.499 0-24.239 17.261-41.406 17.261-17.166 41.499-17.166 24.239 0 41.406 17.261 17.166 17.261 17.166 41.499 0 24.239-17.261 41.406-17.261 17.166-41.499 17.166Zm0-261.334q-24.239 0-41.406-17.261-17.166-17.261-17.166-41.499 0-24.239 17.261-41.405Q455.856-800 480.094-800q24.239 0 41.406 17.261 17.166 17.261 17.166 41.499 0 24.239-17.261 41.406-17.261 17.166-41.499 17.166Z"/></svg>