<svg xmlns="http://www.w3.org/2000/svg" height="40" viewBox="0 -960 960 960" width="40"><path d="M240-80v-172q-57-52-88.5-121.5T120-520q0-150 105-255t255-105q125 0 221.5 73.5T827-615l54 213.667q4.333 15.666-5.667 28.5-10 12.833-26.666 12.833H760v133.334q0 27.5-19.583 47.083T693.334-160H600v80h-66.666v-146.666h160v-200h112l-42.667-171.667Q739-693.334 660-753.334t-180-60q-122 0-207.667 84.667t-85.667 206.36q0 62.945 25.717 119.596 25.716 56.65 72.95 100.711l21.333 20v202H240Zm256-366.667Zm-50 77.333h66.666l4-45.999q10.667-2.334 19.815-7.975 9.149-5.641 16.186-12.692L596-420l32-54.667-33.333-26q4-12 4-24.666 0-12.667-4-24.667L628-576l-32-54.667-43.333 16q-7.223-6.795-16.612-12.231-9.389-5.435-19.389-8.435l-4-46H446l-4 46q-10 3-19.389 8.435-9.389 5.436-16.611 12.231l-43.333-16-32 54.667L364-550q-4 12-4 24.667 0 12.666 4 24.666l-33.333 26 32 54.667L406-436q7.037 7.051 16.185 12.692T442-415.333l4 45.999Zm33.412-89.333q-27.745 0-47.245-19.421-19.501-19.422-19.501-47.167t19.422-47.245Q451.51-592 479.255-592t47.245 19.421q19.5 19.422 19.5 47.167t-19.421 47.245q-19.422 19.5-47.167 19.5Z"/></svg>