<svg xmlns="http://www.w3.org/2000/svg" height="40" viewBox="0 -960 960 960" width="40"><path d="M840-682v495.334q0 27-19.833 46.833T773.334-120H186.666q-27 0-46.833-19.833T120-186.666v-586.668q0-27 19.833-46.833T186.666-840H682l158 158Zm-66.666 29.333L652.667-773.334H186.666v586.668h586.668v-466.001ZM479.843-243.333q45.49 0 77.49-31.843 32-31.844 32-77.334T557.49-430q-31.843-31.999-77.333-31.999-45.49 0-77.49 31.843-32 31.843-32 77.333 0 45.49 31.843 77.49 31.843 32 77.333 32ZM235.333-576H594v-148.667H235.333V-576Zm-48.667-76.667v466.001-586.668 120.667Z"/></svg>