<svg xmlns="http://www.w3.org/2000/svg" height="40" viewBox="0 -960 960 960" width="40"><path d="M410.666-330q23.334 23.334 65.001 22.167 41.666-1.167 61-30.834l218.666-338L420-456q-29 19.333-30.834 61-1.833 41.667 21.5 65Zm68.001-469.333q57.666 0 117.166 17.833 59.501 17.833 113.501 58.834l-60 40.666q-41-25.667-87.167-38.167t-83.515-12.5q-137.982 0-234.984 97.977-97.002 97.977-97.002 237.346 0 44.011 12.167 88.344 12.167 44.334 34.5 82.334h570.001q22.333-36.667 34.5-82.334Q810-354.667 810-400q0-40-11.166-83.667-11.167-43.667-38.167-81.667l41.999-60Q838-572.333 856.5-517q18.5 55.333 20.167 112.333 1.666 59-12.334 111.667t-41 98.333q-11.666 21.334-27 28Q781-160 760.667-160H196q-18.333 0-35.667-9Q143-178 134-194.667q-26-47-40-96.833T80-397.333q0-83 31.5-156.167t85.667-127.667q54.166-54.5 126.953-86.333 72.786-31.833 154.547-31.833Zm-3.667 325Z"/></svg>